<svg width="120" height="44" viewBox="0 0 120 44" fill="none" xmlns="http://www.w3.org/2000/svg">
<path d="M118.781 11.3626H114.869V7.76111V7.3537H114.428H86.0859H85.6447V7.76111V8.92629V9.3337H86.0859H112.572V13.0761V13.4836H113.014H116.925V20.504L111.807 24.8274L111.452 25.1281L111.807 25.4287L116.925 29.7521V36.74H113.009H112.568V37.1474V40.3358H7.52118V36.727V36.3195H7.08H3.17912V29.7342L8.27824 25.4287L8.63383 25.1281L8.27824 24.8274L3.17912 20.5219V13.4762H7.08H7.52118V13.0688V9.3337H33.5859H34.0271V8.92629V7.76111V7.3537H33.5859H5.66471H5.22353V7.76111V11.3553H1.32353H0.882355V11.7627V38.0331V38.4405H1.32353H5.22353V41.9075V42.315H5.66471H114.424H114.866V41.9075V38.8618H118.781H119.222V38.4544V11.77V11.3626H118.781Z" fill="url(#paint0_linear_14738_28540)"/>
<path d="M55.7974 9.29052H56.2385V11.5117H49.2185V2.18452H52.3932V9.29052H55.7974ZM41.5659 5.8846C40.5256 5.48126 39.8974 5.20423 39.8974 4.75608C39.8974 4.42445 40.2768 4.21015 40.8635 4.21015C41.2897 4.21015 41.9232 4.32423 42.5232 4.86852L42.8435 5.15941L43.1524 4.85793L44.2712 3.76689L44.5915 3.45482L44.2368 3.17615C43.2176 2.37682 42.0671 1.98815 40.7197 1.98815C38.0956 1.98815 36.7226 3.46052 36.7226 4.91497C36.7226 6.9186 38.6921 7.64215 40.1303 8.17097C41.0109 8.49526 41.5412 8.712 41.5412 9.02C41.5412 9.30926 41.1529 9.48852 40.5282 9.48852C39.6397 9.48852 38.9788 9.11045 38.5809 8.79349L38.2606 8.53763L37.9712 8.82282L36.8479 9.93015L36.5276 10.2455L36.8876 10.5217C37.9147 11.3104 39.1826 11.7097 40.6562 11.7097C43.1232 11.7097 44.7176 10.5869 44.7176 8.84808C44.7176 7.10926 42.9697 6.42726 41.5659 5.8846ZM71.1335 5.05593L66.2612 1.11467L65.9709 0.880005L65.6806 1.11467L60.8065 5.05593C59.7512 5.85526 59.4124 6.96097 59.91 8.00393C60.39 9.00778 61.5371 9.65637 62.8341 9.65637C63.2471 9.65637 63.6538 9.58956 64.0412 9.45837L64.6447 9.20334C64.4876 9.74356 64.1453 10.4785 63.405 10.9715L62.2968 11.7097H69.6459L68.5376 10.9715C67.7974 10.4785 67.4559 9.74356 67.2979 9.20334L67.8962 9.45593C68.3038 9.59608 68.7009 9.66208 69.1068 9.66208C70.4029 9.66208 71.5518 9.01104 72.0326 8.00474C72.5197 6.98378 72.1756 5.85363 71.1353 5.05675L71.1335 5.05593ZM82.5132 2.18452H75.4385V4.40571H77.6091V11.5117H80.7838V4.40652H82.9544V2.18534H82.5132V2.18452Z" fill="url(#paint1_linear_14738_28540)"/>
<path d="M34.3615 35.2872L35.6356 36.0384H25.6465L26.6329 35.3124C26.8606 35.1446 27.075 34.9759 27.2859 34.7991C27.4385 34.6793 27.5815 34.5416 27.7112 34.3884C27.8374 34.2401 27.8391 34.1725 27.8391 34.1701V25.2087L23.4203 35.0566L23.0118 35.9676L22.605 35.0558L18.2312 25.247V33.8833C18.2312 34.0478 18.2797 34.197 18.3812 34.3387C18.5091 34.5196 18.6512 34.6801 18.8118 34.8219C18.9927 34.9898 19.2053 35.1462 19.4444 35.2872L20.7185 36.0376H10.7479L11.6612 35.3198C11.9109 35.1234 12.1359 34.9254 12.3203 34.7396C12.4844 34.5628 12.6379 34.377 12.7782 34.188C12.8727 34.0593 12.9229 33.9452 12.9229 33.8564V16.0127C12.9229 16.0127 12.9212 15.9435 12.7959 15.7952C12.6653 15.6428 12.5224 15.5043 12.3591 15.3747C12.1703 15.2158 11.9524 15.0635 11.7106 14.9209L10.4365 14.1696H22.1171L20.6647 14.9315C20.4274 15.0561 20.2165 15.1955 20.025 15.3568C19.8821 15.4693 19.7629 15.5956 19.6703 15.7333C19.6288 15.7936 19.6262 15.8359 19.6668 15.9247L23.0585 24.477L26.3982 16.0054C26.4265 15.915 26.4159 15.8343 26.3656 15.7455C26.2871 15.6078 26.1838 15.4896 26.0391 15.3747C25.8503 15.2158 25.6324 15.0635 25.3906 14.9209L24.1165 14.1696H35.5112L34.3827 14.9095C34.1374 15.07 33.9185 15.2395 33.7403 15.4041C33.5859 15.5556 33.45 15.7243 33.3344 15.9052C33.2409 16.0518 33.1959 16.2058 33.1959 16.377V33.9338C33.1959 34.0845 33.24 34.2238 33.33 34.3599C33.4421 34.5294 33.5744 34.6818 33.7315 34.8203C33.9124 34.9881 34.125 35.1446 34.3641 35.2856L34.3615 35.2872ZM57.1474 35.2994L58.2635 36.0376H48.2365L49.3774 35.297C49.6518 35.1185 49.8847 34.9409 50.0621 34.7771C50.2121 34.6296 50.3462 34.4569 50.4609 34.2613C50.5429 34.122 50.5641 33.9884 50.5288 33.8409C50.4688 33.5964 50.4097 33.3471 50.3515 33.0945C50.2941 32.8517 50.2376 32.6382 50.1768 32.4386L50.0806 32.0711H44.8985L44.4803 33.9061C44.4618 33.9713 44.4485 34.078 44.5491 34.2418C44.6638 34.43 44.7988 34.6003 44.955 34.7535C45.1429 34.9433 45.3627 35.1299 45.6088 35.3067L46.6209 36.0352H36.6079L37.8856 35.2839C38.0947 35.1609 38.2809 35.0281 38.4282 34.8985C38.5677 34.7681 38.6982 34.6329 38.8235 34.4936C38.925 34.3811 38.9974 34.2736 39.0362 34.1856C39.045 34.1595 39.0847 34.0218 39.2162 33.3398C39.3212 32.7906 39.4712 32.0841 39.6618 31.2408C39.8532 30.391 40.0588 29.4319 40.2803 28.3645C40.5018 27.2947 40.7303 26.2028 40.9668 25.089C41.2024 23.9767 41.4318 22.8898 41.6524 21.8289C41.8747 20.7656 42.0812 19.8114 42.2735 18.9656C42.4615 18.137 42.6097 17.4468 42.7138 16.9164C42.8427 16.2547 42.8938 16.0649 42.9291 15.981C42.9371 15.9427 42.9353 15.8726 42.8506 15.7577C42.7138 15.5736 42.5638 15.4008 42.4156 15.2541C42.2162 15.07 41.9868 14.8753 41.7335 14.6764L40.8212 13.9586H54.3L53.2659 14.6895C52.9871 14.8867 52.7488 15.0765 52.5671 15.2452C52.4118 15.3976 52.2732 15.5646 52.1568 15.7398C52.095 15.8335 52.0765 15.9011 52.0862 15.9272L52.1091 15.9573V16.0266C52.1118 16.0486 52.1329 16.1708 52.2785 16.8129C52.3959 17.3352 52.545 18.0115 52.7224 18.8385C52.8997 19.6656 53.0991 20.6099 53.3206 21.6708C53.5421 22.7325 53.7635 23.8162 53.985 24.9219C54.2065 26.0252 54.4271 27.1073 54.6485 28.1673C54.8691 29.2258 55.0747 30.1807 55.2671 31.0314C55.4594 31.8853 55.6138 32.591 55.7329 33.1499C55.8856 33.8727 55.9279 34.0055 55.9377 34.0332C55.98 34.1464 56.0612 34.2736 56.1785 34.4113C56.3153 34.5726 56.4529 34.7193 56.595 34.8529C56.7512 35.0069 56.9382 35.156 57.15 35.2961L57.1474 35.2994ZM47.5059 19.5776L45.7324 28.6228H49.2794L47.5059 19.5776ZM110.704 36.0376H100.676L101.817 35.297C102.092 35.1193 102.325 34.9409 102.502 34.7771C102.652 34.6296 102.786 34.4561 102.901 34.2613C102.983 34.122 103.004 33.9884 102.969 33.8409C102.909 33.5964 102.85 33.3471 102.791 33.0953C102.734 32.8525 102.678 32.639 102.617 32.4394L102.521 32.0719H97.3385L96.9203 33.9069C96.9018 33.9721 96.8885 34.0788 96.9891 34.2426C97.1038 34.4308 97.2388 34.6011 97.395 34.7543C97.5829 34.9441 97.8027 35.1307 98.0488 35.3076L99.0609 36.036H89.0479L90.3256 35.2847C90.5347 35.1617 90.7209 35.0289 90.8682 34.8993C91.0077 34.769 91.1382 34.6337 91.2635 34.4944C91.365 34.3819 91.4374 34.2744 91.4753 34.1864C91.4841 34.1603 91.5238 34.0226 91.6553 33.3406C91.7603 32.7898 91.9103 32.0833 92.1009 31.2416C92.2924 30.3918 92.4979 29.4327 92.7194 28.3653C92.9409 27.2955 93.1694 26.2036 93.4059 25.0898C93.6415 23.9776 93.87 22.8906 94.0915 21.8297C94.3138 20.7664 94.5203 19.8122 94.7126 18.9664C94.9006 18.1378 95.0488 17.4484 95.1529 16.9172C95.2818 16.2547 95.3329 16.0649 95.3682 15.9818C95.3762 15.9435 95.3744 15.8734 95.2897 15.7585C95.1529 15.5744 95.0038 15.4016 94.8547 15.2558C94.6544 15.0708 94.425 14.8769 94.1727 14.6781L93.2603 13.9602H106.74L105.706 14.6911C105.427 14.8883 105.189 15.0781 105.007 15.2468C104.852 15.4 104.713 15.5662 104.597 15.7414C104.535 15.8351 104.516 15.9036 104.526 15.9288L104.549 15.959V16.0282C104.552 16.0502 104.573 16.1716 104.719 16.8153C104.837 17.3376 104.986 18.0139 105.163 18.841C105.341 19.668 105.54 20.6124 105.761 21.6733C105.983 22.735 106.204 23.8187 106.426 24.9244C106.647 26.0276 106.868 27.1097 107.089 28.169C107.31 29.2274 107.516 30.1824 107.708 31.033C107.9 31.887 108.055 32.5926 108.174 33.1516C108.326 33.8743 108.369 34.0071 108.379 34.0348C108.421 34.1489 108.502 34.2752 108.619 34.4129C108.756 34.5742 108.894 34.7201 109.036 34.8545C109.193 35.0085 109.379 35.1576 109.591 35.2978L110.707 36.036L110.704 36.0376ZM99.9459 19.5776L98.1724 28.6228H101.719L99.9459 19.5776ZM74.8474 14.353L74.7671 14.0393H59.3709L60.4827 14.7775C60.7032 14.9233 60.9132 15.0806 61.1074 15.2436C61.2741 15.3747 61.4197 15.5116 61.5512 15.6583C61.6279 15.7447 61.6712 15.8245 61.6712 15.8807V33.933C61.6712 34.0381 61.6253 34.1489 61.5318 34.2711C61.395 34.4479 61.2441 34.6182 61.0835 34.7755C60.8956 34.949 60.6794 35.1364 60.45 35.3222L59.5703 36.036H69.4694L68.1944 35.2847C67.9553 35.1438 67.7427 34.9873 67.5618 34.8195C67.4047 34.681 67.2724 34.5278 67.1594 34.3583C67.0694 34.2222 67.0253 34.0918 67.0253 33.9582V28.0524H70.9227C71.1997 28.0524 71.4671 28.0899 71.7185 28.1641C71.9947 28.2456 72.2444 28.336 72.4588 28.4305C72.7015 28.5413 72.9406 28.666 73.1647 28.798L73.8424 29.1964V23.4585L73.1638 23.8586C72.9168 24.0036 72.6538 24.1348 72.3803 24.2473C72.1562 24.3458 71.9109 24.4298 71.6418 24.5015C71.3877 24.5691 71.145 24.6033 70.9227 24.6033H67.0253V17.4876H72.2947C72.6679 17.4876 73.0262 17.5275 73.3588 17.6057C73.7056 17.688 74.0047 17.7776 74.2465 17.873C74.5597 17.9903 74.8403 18.115 75.0865 18.2437L75.9671 18.7049L75.7332 17.7956L74.8482 14.3521L74.8474 14.353ZM85.8953 15.6583C86.0038 15.5027 86.1318 15.3658 86.2747 15.2525C86.46 15.0961 86.6647 14.969 86.8932 14.8638L88.5768 14.0914H77.9788L79.0915 14.8296C79.3059 14.9722 79.5115 15.1336 79.7012 15.3087C79.8626 15.4521 80.0091 15.6078 80.1415 15.7797C80.235 15.9011 80.2809 16.0119 80.2809 16.117V33.9607C80.2809 34.1008 80.235 34.2287 80.1415 34.351C80.01 34.5213 79.8644 34.6769 79.7091 34.8146C79.5141 34.9955 79.3094 35.156 79.0924 35.3002L77.9797 36.0384H88.3703L86.9153 35.2766C86.6841 35.156 86.4785 35.0118 86.3021 34.848C86.1477 34.7111 86.0162 34.5563 85.9041 34.3811C85.8115 34.2344 85.7656 34.0804 85.7656 33.9093V16.0657C85.7656 15.9182 85.8079 15.7846 85.8953 15.6583Z" fill="url(#paint2_linear_14738_28540)"/>
<defs>
<linearGradient id="paint0_linear_14738_28540" x1="60.0521" y1="7.3537" x2="60.0521" y2="42.315" gradientUnits="userSpaceOnUse">
<stop stop-color="#C78651"/>
<stop offset="0.172" stop-color="#D3915F"/>
<stop offset="0.361" stop-color="#BD8152"/>
<stop offset="0.569" stop-color="#A26D41"/>
<stop offset="0.72" stop-color="#9C673B"/>
<stop offset="1" stop-color="#996439"/>
</linearGradient>
<linearGradient id="paint1_linear_14738_28540" x1="59.7406" y1="0.880005" x2="59.7406" y2="11.7097" gradientUnits="userSpaceOnUse">
<stop stop-color="#B8B6B5"/>
<stop offset="0.5" stop-color="#A3A1A0"/>
<stop offset="0.552" stop-color="#9F9B98"/>
<stop offset="0.716" stop-color="#968F87"/>
<stop offset="0.835" stop-color="#938B81"/>
<stop offset="1" stop-color="#989088"/>
</linearGradient>
<linearGradient id="paint2_linear_14738_28540" x1="60.5691" y1="13.9618" x2="60.5691" y2="36.0376" gradientUnits="userSpaceOnUse">
<stop stop-color="#DF944D"/>
<stop offset="0.071" stop-color="#DB9352"/>
<stop offset="0.278" stop-color="#D3915F"/>
<stop offset="0.417" stop-color="#BD8152"/>
<stop offset="0.569" stop-color="#A26D41"/>
<stop offset="0.631" stop-color="#9C673B"/>
<stop offset="0.745" stop-color="#996439"/>
<stop offset="1" stop-color="#BA7941"/>
</linearGradient>
</defs>
</svg>
